<?xml version="1.0" encoding="utf-8"?>
<!-- Generator: Adobe Illustrator 26.1.0, SVG Export Plug-In . SVG Version: 6.00 Build 0)  -->
<svg version="1.1" id="Dexcom_Brand" xmlns="http://www.w3.org/2000/svg" xmlns:xlink="http://www.w3.org/1999/xlink" x="0px"
	 y="0px" viewBox="0 0 186.7 62.1" style="enable-background:new 0 0 186.7 62.1;" xml:space="preserve">
<style type="text/css">
	.st0{fill:#32AD10;}
</style>
<g id="Dexcom">
	<path id="M" class="st0" d="M135.5,20.9h4.7l0.8,1.4l0.3-0.2c0,0,2.7-1.7,6-1.7c2.5,0,4.3,0.5,5.3,1.4l0.2,0.2l0.2-0.1
		c2.2-1,4.1-1.5,5.9-1.5c4.7,0,6.4,1.9,6.4,3.7v17.5h-5.8v-15c0-2.2-0.2-2.8-1.8-2.8c-2.8,0-4,2.1-4,2.1v15.8h-5.8v-15
		c0-2.2-0.2-2.8-1.8-2.8c-2.8,0-4,2.1-4,2.1v15.8h-5.8V25.1C136.4,22.2,135.5,20.9,135.5,20.9z"/>
	<path id="O" class="st0" d="M110.9,31.2c0-6.7,3.9-10.8,10.4-10.8s10.3,4,10.3,10.8S127.7,42,121.3,42
		C114.8,42,110.9,38,110.9,31.2z M117.2,31.2c0,5.5,1.3,7.5,4,7.5c2.8,0,4-1.9,4-7.5s-1.2-7.5-4-7.5
		C118.5,23.7,117.2,25.7,117.2,31.2z"/>
	<path id="C" class="st0" d="M101.3,38.7c-3.1-0.1-4.6-2.1-4.6-7.5c0-5.5,1.5-7.5,4.6-7.5c2.8,0,4.9,1.3,4.9,1.3l2.1-1.9
		c0,0-2.6-2.7-7.6-2.7c-6.5,0-10.3,3.7-10.3,10.8l0,0l0,0l0,0l0,0c0,7.1,3.8,10.8,10.3,10.8l0,0l0,0c5,0,7.6-2.7,7.6-2.7l-2.1-1.9
		C106.2,37.4,104.1,38.7,101.3,38.7z"/>
	<path id="X" class="st0" d="M80.1,31.2L80.1,31.2L80.1,31.2c3.7-3.7,6.7-5.8,8-10.3h-5.8c-0.7,2.6-2.8,5.3-4.9,7.5
		c-2.1-2.2-4.2-5-4.9-7.5h-5.8c1.3,4.6,4.3,6.7,8,10.3l0,0l0,0c-3.7,3.7-6.7,5.8-8,10.3h5.8c0.7-2.6,2.8-5.3,4.9-7.5
		c2.1,2.2,4.2,5,4.9,7.5h5.8C86.7,37,83.7,34.9,80.1,31.2z"/>
	<path id="E" class="st0" d="M44.6,31.2c0-7.3,3.5-10.8,10.3-10.8c8.7,0,9.1,7.3,8.5,9.5c-3.3,2.1-7.1,3.2-12.1,3.2H51v0.3
		c0,3.9,1.3,5.2,4.4,5.2c2.9,0,5-1.3,5-1.3l2.1,1.9c0,0-2.6,2.7-7.6,2.7C47.8,42,44.6,38.8,44.6,31.2z M51,30v0.3h0.3
		c4.7,0,7.2-1.7,7.2-1.7s0.6-4.9-3.4-4.9C51.4,23.7,51,26.5,51,30z"/>
	<path id="D" class="st0" d="M21.4,20.9h8.4c7.1,0,10.6,3.4,10.6,10.3c0,7-3.5,10.4-10.6,10.4h-8.4V20.9z M27.8,24.2v14.1
		c0,0,0.3,0,2.9,0s3.4-2.5,3.4-7.1s-1.2-7-3.6-7C28.1,24.2,27.8,24.2,27.8,24.2z"/>
</g>
</svg>
