<svg width="144" height="22" viewBox="0 0 144 22" fill="none" xmlns="http://www.w3.org/2000/svg">
<path d="M114.1 0.5H118.8L119.6 1.9L119.9 1.7C119.9 1.7 122.6 0 125.9 0C128.4 0 130.2 0.5 131.2 1.4L131.4 1.6L131.6 1.5C133.8 0.5 135.7 0 137.5 0C142.2 0 143.9 1.9 143.9 3.7V21.2H138.1V6.2C138.1 4 137.9 3.4 136.3 3.4C133.5 3.4 132.3 5.5 132.3 5.5V21.3H126.5V6.3C126.5 4.1 126.3 3.5 124.7 3.5C121.9 3.5 120.7 5.6 120.7 5.6V21.4H114.9V4.7C115 1.8 114.1 0.5 114.1 0.5Z" fill="#32AD10"/>
<path d="M89.5 10.8C89.5 4.1 93.4 0 99.9 0C106.4 0 110.2 4 110.2 10.8C110.2 17.6 106.3 21.6 99.9 21.6C93.4 21.6 89.5 17.6 89.5 10.8ZM95.8 10.8C95.8 16.3 97.1 18.3 99.8 18.3C102.6 18.3 103.8 16.4 103.8 10.8C103.8 5.2 102.6 3.3 99.8 3.3C97.1 3.3 95.8 5.3 95.8 10.8Z" fill="#32AD10"/>
<path d="M79.9 18.3C76.8 18.2 75.3 16.2 75.3 10.8C75.3 5.3 76.8 3.3 79.9 3.3C82.7 3.3 84.8 4.6 84.8 4.6L86.9 2.7C86.9 2.7 84.3 0 79.3 0C72.8 0 69 3.7 69 10.8C69 17.9 72.8 21.6 79.3 21.6C84.3 21.6 86.9 18.9 86.9 18.9L84.8 17C84.8 17 82.7 18.3 79.9 18.3Z" fill="#32AD10"/>
<path d="M58.6998 10.8C62.3998 7.1 65.3998 5 66.6998 0.5H60.8998C60.1998 3.1 58.0998 5.8 55.9998 8C53.8998 5.8 51.7998 3 51.0998 0.5H45.2998C46.5998 5.1 49.5998 7.2 53.2998 10.8C49.5998 14.5 46.5998 16.6 45.2998 21.1H51.0998C51.7998 18.5 53.8998 15.8 55.9998 13.6C58.0998 15.8 60.1998 18.6 60.8998 21.1H66.6998C65.2998 16.6 62.2998 14.5 58.6998 10.8Z" fill="#32AD10"/>
<path d="M23.2002 10.8C23.2002 3.5 26.7002 0 33.5002 0C42.2002 0 42.6002 7.3 42.0002 9.5C38.7002 11.6 34.9002 12.7 29.9002 12.7H29.6002V13C29.6002 16.9 30.9002 18.2 34.0002 18.2C36.9002 18.2 39.0002 16.9 39.0002 16.9L41.1002 18.8C41.1002 18.8 38.5002 21.5 33.5002 21.5C26.4002 21.6 23.2002 18.4 23.2002 10.8ZM29.6002 9.6V9.9H29.9002C34.6002 9.9 37.1002 8.2 37.1002 8.2C37.1002 8.2 37.7002 3.3 33.7002 3.3C30.0002 3.3 29.6002 6.1 29.6002 9.6Z" fill="#32AD10"/>
<path d="M0 0.5H8.4C15.5 0.5 19 3.9 19 10.8C19 17.8 15.5 21.2 8.4 21.2H0V0.5ZM6.4 3.8V17.9C6.4 17.9 6.7 17.9 9.3 17.9C11.9 17.9 12.7 15.4 12.7 10.8C12.7 6.2 11.5 3.8 9.1 3.8C6.7 3.8 6.4 3.8 6.4 3.8Z" fill="#32AD10"/>
</svg>
