<?xml version="1.0" encoding="UTF-8"?>
<svg id="Layer_1" xmlns="http://www.w3.org/2000/svg" version="1.1" viewBox="0 0 1000 1000">
  <!-- Generator: Adobe Illustrator 29.2.1, SVG Export Plug-In . SVG Version: 2.1.0 Build 116)  -->
  <defs>
    <style>
      .st0 {
        fill: #fff;
      }
    </style>
  </defs>
  <path class="st0" d="M500,872.1c-50.2,0-98.9-9.8-144.9-29.3-44.3-18.7-84.1-45.6-118.3-79.7-34.2-34.2-61-73.9-79.7-118.3-19.4-45.9-29.3-94.7-29.3-144.9s9.8-98.9,29.3-144.9c18.7-44.3,45.6-84.1,79.7-118.3,34.2-34.2,73.9-61,118.3-79.7,45.9-19.4,94.7-29.3,144.9-29.3s98.9,9.8,144.9,29.3c44.3,18.7,84.1,45.6,118.3,79.7,34.2,34.2,61,73.9,79.7,118.3,19.4,45.9,29.3,94.7,29.3,144.9s-9.8,98.9-29.3,144.9c-18.7,44.3-45.6,84.1-79.7,118.3-34.2,34.2-73.9,61-118.3,79.7-45.9,19.4-94.7,29.3-144.9,29.3ZM500,256.1c-65.2,0-126.4,25.4-172.5,71.4-46.1,46.1-71.4,107.3-71.4,172.5s25.4,126.4,71.4,172.5c46.1,46.1,107.3,71.4,172.5,71.4s126.4-25.4,172.5-71.4,71.4-107.3,71.4-172.5-25.4-126.4-71.4-172.5c-46.1-46.1-107.3-71.4-172.5-71.4Z"/>
  <path class="st0" d="M500,976.1c-64.3,0-126.6-12.6-185.3-37.4-56.7-24-107.6-58.3-151.3-102s-78-94.6-102-151.3c-24.8-58.7-37.4-121.1-37.4-185.3s12.6-126.6,37.4-185.3c24-56.7,58.3-107.6,102-151.3s94.6-78,151.3-102c58.7-24.8,121.1-37.4,185.3-37.4s126.6,12.6,185.3,37.4c56.7,24,107.6,58.3,151.3,102s78,94.6,102,151.3c24.8,58.7,37.4,121.1,37.4,185.3s-12.6,126.6-37.4,185.3c-24,56.7-58.3,107.6-102,151.3s-94.6,78-151.3,102c-58.7,24.8-121.1,37.4-185.3,37.4ZM500,60.6c-59.3,0-116.9,11.6-171,34.5-52.3,22.1-99.3,53.8-139.7,94.2s-72,87.3-94.2,139.7c-22.9,54.2-34.5,111.7-34.5,171s11.6,116.9,34.5,171c22.1,52.3,53.8,99.3,94.2,139.7,40.4,40.4,87.3,72,139.7,94.2,54.2,22.9,111.7,34.5,171,34.5s116.9-11.6,171-34.5c52.3-22.1,99.3-53.8,139.7-94.2,40.4-40.4,72-87.3,94.2-139.7,22.9-54.2,34.5-111.7,34.5-171s-11.6-116.9-34.5-171c-22.1-52.3-53.8-99.3-94.2-139.7-40.4-40.4-87.3-72-139.7-94.2-54.2-22.9-111.7-34.5-171-34.5Z"/>
</svg>