<svg width="48" height="49" viewBox="0 0 48 49" fill="none" xmlns="http://www.w3.org/2000/svg">
<g clip-path="url(#clip0_3293_3650)">
<rect y="0.619995" width="48" height="48" rx="24" fill="white"/>
<mask id="mask0_3293_3650" style="mask-type:luminance" maskUnits="userSpaceOnUse" x="-9" y="0" width="65" height="49">
<path d="M-8.17334 0.619995H55.6933V48.52H-8.17334V0.619995Z" fill="white"/>
</mask>
<g mask="url(#mask0_3293_3650)">
<path fill-rule="evenodd" clip-rule="evenodd" d="M-8.17334 0.619995H55.6933V48.52H-8.17334V0.619995Z" fill="#F7FCFF"/>
<path fill-rule="evenodd" clip-rule="evenodd" d="M-8.17334 29.8923V33.884H55.6933V29.8923H-8.17334Z" fill="#E31D1C"/>
<path fill-rule="evenodd" clip-rule="evenodd" d="M-8.17334 37.2101V41.2018H55.6933V37.2101H-8.17334Z" fill="#E31D1C"/>
<path fill-rule="evenodd" clip-rule="evenodd" d="M-8.17334 15.256V19.2476H55.6933V15.256H-8.17334Z" fill="#E31D1C"/>
<path fill-rule="evenodd" clip-rule="evenodd" d="M-8.17334 44.5283V48.52H55.6933V44.5283H-8.17334Z" fill="#E31D1C"/>
<path fill-rule="evenodd" clip-rule="evenodd" d="M-8.17334 22.5741V26.5658H55.6933V22.5741H-8.17334Z" fill="#E31D1C"/>
<path fill-rule="evenodd" clip-rule="evenodd" d="M-8.17334 0.619995V4.61166H55.6933V0.619995H-8.17334Z" fill="#E31D1C"/>
<path fill-rule="evenodd" clip-rule="evenodd" d="M-8.17334 7.93823V11.9299H55.6933V7.93823H-8.17334Z" fill="#E31D1C"/>
<path d="M-8.17334 0.619995H31.7433V26.5658H-8.17334V0.619995Z" fill="#2E42A5"/>
<path fill-rule="evenodd" clip-rule="evenodd" d="M-4.73659 6.48517L-6.18533 7.50081L-5.69623 5.69337L-6.98297 4.54794H-5.30231L-4.73863 3.07288L-4.07767 4.54794H-2.64494L-3.77067 5.69337L-3.33486 7.50081L-4.73659 6.48517ZM3.24674 6.48517L1.79801 7.50081L2.2871 5.69337L1.00037 4.54794H2.68102L3.24471 3.07288L3.90567 4.54794H5.3384L4.21266 5.69337L4.64848 7.50081L3.24674 6.48517ZM9.78134 7.50081L11.2301 6.48517L12.6318 7.50081L12.1959 5.69337L13.3218 4.54794H11.889L11.228 3.07288L10.6644 4.54794H8.98371L10.2704 5.69337L9.78134 7.50081ZM19.2135 6.48517L17.7647 7.50081L18.2539 5.69337L16.967 4.54794H18.6477L19.2115 3.07288L19.8723 4.54794H21.3051L20.1793 5.69337L20.6151 7.50081L19.2135 6.48517ZM-6.18533 15.4841L-4.73659 14.4685L-3.33486 15.4841L-3.77067 13.6767L-2.64494 12.5313H-4.07767L-4.73863 11.0562L-5.30231 12.5313H-6.98297L-5.69623 13.6767L-6.18533 15.4841ZM3.24674 14.4685L1.79801 15.4841L2.2871 13.6767L1.00037 12.5313H2.68102L3.24471 11.0562L3.90567 12.5313H5.3384L4.21266 13.6767L4.64848 15.4841L3.24674 14.4685ZM9.78134 15.4841L11.2301 14.4685L12.6318 15.4841L12.1959 13.6767L13.3218 12.5313H11.889L11.228 11.0562L10.6644 12.5313H8.98371L10.2704 13.6767L9.78134 15.4841ZM19.2135 14.4685L17.7647 15.4841L18.2539 13.6767L16.967 12.5313H18.6477L19.2115 11.0562L19.8723 12.5313H21.3051L20.1793 13.6767L20.6151 15.4841L19.2135 14.4685ZM-6.18533 23.4675L-4.73659 22.4518L-3.33486 23.4675L-3.77067 21.6601L-2.64494 20.5146H-4.07767L-4.73863 19.0395L-5.30231 20.5146H-6.98297L-5.69623 21.6601L-6.18533 23.4675ZM3.24674 22.4518L1.79801 23.4675L2.2871 21.6601L1.00037 20.5146H2.68102L3.24471 19.0395L3.90567 20.5146H5.3384L4.21266 21.6601L4.64848 23.4675L3.24674 22.4518ZM9.78134 23.4675L11.2301 22.4518L12.6318 23.4675L12.1959 21.6601L13.3218 20.5146H11.889L11.228 19.0395L10.6644 20.5146H8.98371L10.2704 21.6601L9.78134 23.4675ZM19.2135 22.4518L17.7647 23.4675L18.2539 21.6601L16.967 20.5146H18.6477L19.2115 19.0395L19.8723 20.5146H21.3051L20.1793 21.6601L20.6151 23.4675L19.2135 22.4518ZM25.748 7.50081L27.1968 6.48517L28.5985 7.50081L28.1626 5.69337L29.2884 4.54794H27.8556L27.1948 3.07288L26.631 4.54794H24.9503L26.2372 5.69337L25.748 7.50081ZM27.1968 14.4685L25.748 15.4841L26.2372 13.6767L24.9503 12.5313H26.631L27.1948 11.0562L27.8556 12.5313H29.2884L28.1626 13.6767L28.5985 15.4841L27.1968 14.4685ZM25.748 23.4675L27.1968 22.4518L28.5985 23.4675L28.1626 21.6601L29.2884 20.5146H27.8556L27.1948 19.0395L26.631 20.5146H24.9503L26.2372 21.6601L25.748 23.4675ZM-0.744925 10.4768L-2.19366 11.4925L-1.70456 9.68503L-2.9913 8.5396H-1.31064L-0.746961 7.06454L-0.0860004 8.5396H1.34673L0.220998 9.68503L0.656809 11.4925L-0.744925 10.4768ZM5.78967 11.4925L7.23841 10.4768L8.64014 11.4925L8.20433 9.68503L9.33006 8.5396H7.89733L7.23637 7.06454L6.67269 8.5396H4.99204L6.27877 9.68503L5.78967 11.4925ZM15.2218 10.4768L13.773 11.4925L14.2622 9.68503L12.9753 8.5396H14.656L15.2198 7.06454L15.8806 8.5396H17.3134L16.1876 9.68503L16.6235 11.4925L15.2218 10.4768ZM-2.19366 19.4758L-0.744925 18.4602L0.656809 19.4758L0.220998 17.6684L1.34673 16.5229H-0.0860004L-0.746961 15.0479L-1.31064 16.5229H-2.9913L-1.70456 17.6684L-2.19366 19.4758ZM7.23841 18.4602L5.78967 19.4758L6.27877 17.6684L4.99204 16.5229H6.67269L7.23637 15.0479L7.89733 16.5229H9.33006L8.20433 17.6684L8.64014 19.4758L7.23841 18.4602ZM13.773 19.4758L15.2218 18.4602L16.6235 19.4758L16.1876 17.6684L17.3134 16.5229H15.8806L15.2198 15.0479L14.656 16.5229H12.9753L14.2622 17.6684L13.773 19.4758ZM23.2051 10.4768L21.7564 11.4925L22.2455 9.68503L20.9586 8.5396H22.6393L23.2031 7.06454L23.864 8.5396H25.2968L24.1709 9.68503L24.6068 11.4925L23.2051 10.4768ZM21.7564 19.4758L23.2051 18.4602L24.6068 19.4758L24.1709 17.6684L25.2968 16.5229H23.864L23.2031 15.0479L22.6393 16.5229H20.9586L22.2455 17.6684L21.7564 19.4758Z" fill="#F7FCFF"/>
</g>
</g>
<defs>
<clipPath id="clip0_3293_3650">
<rect y="0.619995" width="48" height="48" rx="24" fill="white"/>
</clipPath>
</defs>
</svg>
