<svg width="61" height="61" viewBox="0 0 61 61" fill="none" xmlns="http://www.w3.org/2000/svg">
<mask id="mask0_481_1137" style="mask-type:luminance" maskUnits="userSpaceOnUse" x="0" y="0" width="61" height="61">
<path d="M0.577637 30.6785C0.577637 47.247 14.0091 60.6785 30.5776 60.6785C47.1462 60.6785 60.5776 47.247 60.5776 30.6785C60.5776 14.1099 47.1462 0.678467 30.5776 0.678467C14.0091 0.678467 0.577637 14.1099 0.577637 30.6785Z" fill="white"/>
</mask>
<g mask="url(#mask0_481_1137)">
<path d="M0.577637 30.6784C0.577637 14.1099 14.0091 0.678467 30.5776 0.678467V0.678467C47.1462 0.678467 60.5776 14.1099 60.5776 30.6784V30.6784C60.5776 47.247 47.1462 60.6784 30.5776 60.6784V60.6784C14.0091 60.6784 0.577637 47.247 0.577637 30.6784V30.6784Z" fill="white"/>
<path d="M0.577637 10.6769C0.577637 5.15491 5.05408 0.678467 10.5761 0.678467V0.678467C16.098 0.678467 20.5745 5.15491 20.5745 10.6769V50.68C20.5745 56.202 16.098 60.6784 10.5761 60.6784V60.6784C5.05408 60.6784 0.577637 56.202 0.577637 50.68V10.6769Z" fill="#000091"/>
<path d="M40.5806 10.6769C40.5806 5.15491 45.057 0.678467 50.579 0.678467V0.678467C56.101 0.678467 60.5774 5.15492 60.5774 10.6769V50.68C60.5774 56.202 56.101 60.6784 50.579 60.6784V60.6784C45.057 60.6784 40.5806 56.202 40.5806 50.68V10.6769Z" fill="#E1000F"/>
</g>
</svg>
